<svg xmlns="http://www.w3.org/2000/svg" xmlns:xlink="http://www.w3.org/1999/xlink" zoomAndPan="magnify" viewBox="0 0 375 374.999991" preserveAspectRatio="xMidYMid meet" version="1.0"><defs><g/><clipPath id="ab25377f08"><path d="M 0 169.941406 L 363.789062 169.941406 L 363.789062 212.148438 L 0 212.148438 Z M 0 169.941406 " clip-rule="nonzero"/></clipPath></defs><rect x="-37.5" width="450" fill="#ffffff" y="-37.499999" height="449.999989" fill-opacity="1"/><rect x="-37.5" width="450" fill="#ffffff" y="-37.499999" height="449.999989" fill-opacity="1"/><g fill="#000000" fill-opacity="1"><g transform="translate(169.316103, 268.815645)"><g><path d="M 84.078125 4.5625 C 94.328125 4.5625 103.976562 2.203125 113.03125 -2.515625 C 122.082031 -7.242188 129.96875 -13.53125 136.6875 -21.375 C 143.414062 -29.226562 148.742188 -38.238281 152.671875 -48.40625 C 156.597656 -58.570312 158.5625 -69.101562 158.5625 -80 C 158.5625 -90.882812 156.597656 -101.410156 152.671875 -111.578125 C 148.742188 -121.753906 143.414062 -130.722656 136.6875 -138.484375 C 129.96875 -146.253906 122.082031 -152.460938 113.03125 -157.109375 C 103.976562 -161.753906 94.328125 -164.078125 84.078125 -164.078125 C 73.828125 -164.078125 64.175781 -161.753906 55.125 -157.109375 C 46.082031 -152.460938 38.195312 -146.253906 31.46875 -138.484375 C 24.738281 -130.722656 19.410156 -121.753906 15.484375 -111.578125 C 11.566406 -101.410156 9.609375 -90.882812 9.609375 -80 C 9.609375 -69.101562 11.566406 -58.570312 15.484375 -48.40625 C 19.410156 -38.238281 24.738281 -29.226562 31.46875 -21.375 C 38.195312 -13.53125 46.082031 -7.242188 55.125 -2.515625 C 64.175781 2.203125 73.828125 4.5625 84.078125 4.5625 Z M 84.078125 -159.75 C 91.285156 -159.75 97.691406 -158.628906 103.296875 -156.390625 C 108.898438 -154.148438 113.582031 -150.382812 117.34375 -145.09375 C 121.113281 -139.8125 124 -132.847656 126 -124.203125 C 128 -115.554688 129 -104.828125 129 -92.015625 L 129 -67.984375 C 129 -44.765625 125.15625 -27.585938 117.46875 -16.453125 C 109.78125 -5.328125 98.648438 0.234375 84.078125 0.234375 C 69.503906 0.234375 58.375 -5.328125 50.6875 -16.453125 C 43 -27.585938 39.15625 -44.765625 39.15625 -67.984375 L 39.15625 -92.015625 C 39.15625 -104.503906 40.15625 -115.03125 42.15625 -123.59375 C 44.164062 -132.164062 47.050781 -139.132812 50.8125 -144.5 C 54.570312 -149.863281 59.253906 -153.742188 64.859375 -156.140625 C 70.460938 -158.546875 76.867188 -159.75 84.078125 -159.75 Z M 84.078125 -159.75 "/></g></g></g><g fill="#000000" fill-opacity="1"><g transform="translate(25.069868, 272.365275)"><g><path d="M 71.015625 -164 L 5.375 -164 L 5.375 -160.09375 L 26.359375 -160.09375 L 26.359375 -40.75 C 26.359375 -32.132812 28.023438 -24.9375 31.359375 -19.15625 C 34.691406 -13.382812 39 -8.707031 44.28125 -5.125 C 49.570312 -1.539062 55.472656 0.976562 61.984375 2.4375 C 68.492188 3.90625 74.921875 4.640625 81.265625 4.640625 C 96.722656 4.640625 108.765625 0.859375 117.390625 -6.703125 C 126.015625 -14.273438 130.328125 -25.625 130.328125 -40.75 L 130.328125 -160.09375 L 151.3125 -160.09375 L 151.3125 -164 L 105.421875 -164 L 105.421875 -160.09375 L 126.421875 -160.09375 L 126.421875 -40.75 C 126.421875 -34.25 125.398438 -28.4375 123.359375 -23.3125 C 121.328125 -18.1875 118.519531 -13.875 114.9375 -10.375 C 111.363281 -6.875 107.175781 -4.226562 102.375 -2.4375 C 97.570312 -0.644531 92.40625 0.25 86.875 0.25 C 75.488281 0.25 66.5 -3.285156 59.90625 -10.359375 C 53.320312 -17.441406 50.03125 -27.570312 50.03125 -40.75 L 50.03125 -160.09375 L 71.015625 -160.09375 Z M 71.015625 -164 "/></g></g></g><g clip-path="url(#ab25377f08)"><path fill="#ffffff" d="M 0 169.941406 L 363.871094 169.941406 L 363.871094 212.148438 L 0 212.148438 Z M 0 169.941406 " fill-opacity="1" fill-rule="nonzero"/></g><g fill="#000000" fill-opacity="1"><g transform="translate(35.501019, 196.86718)"><g><path d="M 7.4375 0.234375 C 5.550781 0.234375 4.082031 -0.285156 3.03125 -1.328125 C 1.976562 -2.378906 1.453125 -3.875 1.453125 -5.8125 L 1.453125 -13.21875 L 4.515625 -13.21875 L 4.515625 -5.9375 C 4.515625 -3.5625 5.5 -2.375 7.46875 -2.375 C 8.414062 -2.375 9.140625 -2.660156 9.640625 -3.234375 C 10.148438 -3.804688 10.40625 -4.707031 10.40625 -5.9375 L 10.40625 -13.21875 L 13.4375 -13.21875 L 13.4375 -5.8125 C 13.4375 -3.875 12.910156 -2.378906 11.859375 -1.328125 C 10.804688 -0.285156 9.332031 0.234375 7.4375 0.234375 Z M 7.4375 0.234375 "/></g></g></g><g fill="#000000" fill-opacity="1"><g transform="translate(56.918966, 196.86718)"><g><path d="M 10 0 L 7.4375 -3.6875 L 4.625 -3.6875 L 4.625 0 L 1.5625 0 L 1.5625 -13.21875 L 7.296875 -13.21875 C 8.460938 -13.21875 9.476562 -13.019531 10.34375 -12.625 C 11.207031 -12.238281 11.867188 -11.6875 12.328125 -10.96875 C 12.796875 -10.257812 13.03125 -9.410156 13.03125 -8.421875 C 13.03125 -7.441406 12.796875 -6.59375 12.328125 -5.875 C 11.859375 -5.164062 11.1875 -4.625 10.3125 -4.25 L 13.28125 0 Z M 9.9375 -8.421875 C 9.9375 -9.171875 9.695312 -9.742188 9.21875 -10.140625 C 8.738281 -10.535156 8.039062 -10.734375 7.125 -10.734375 L 4.625 -10.734375 L 4.625 -6.125 L 7.125 -6.125 C 8.039062 -6.125 8.738281 -6.320312 9.21875 -6.71875 C 9.695312 -7.125 9.9375 -7.691406 9.9375 -8.421875 Z M 9.9375 -8.421875 "/></g></g></g><g fill="#000000" fill-opacity="1"><g transform="translate(77.335914, 196.86718)"><g><path d="M 7.96875 0.234375 C 6.59375 0.234375 5.351562 -0.0625 4.25 -0.65625 C 3.15625 -1.25 2.296875 -2.066406 1.671875 -3.109375 C 1.046875 -4.148438 0.734375 -5.316406 0.734375 -6.609375 C 0.734375 -7.910156 1.046875 -9.078125 1.671875 -10.109375 C 2.296875 -11.148438 3.15625 -11.96875 4.25 -12.5625 C 5.351562 -13.15625 6.59375 -13.453125 7.96875 -13.453125 C 9.34375 -13.453125 10.578125 -13.15625 11.671875 -12.5625 C 12.765625 -11.96875 13.625 -11.148438 14.25 -10.109375 C 14.882812 -9.078125 15.203125 -7.910156 15.203125 -6.609375 C 15.203125 -5.316406 14.882812 -4.148438 14.25 -3.109375 C 13.625 -2.066406 12.765625 -1.25 11.671875 -0.65625 C 10.578125 -0.0625 9.34375 0.234375 7.96875 0.234375 Z M 7.96875 -2.375 C 8.75 -2.375 9.453125 -2.550781 10.078125 -2.90625 C 10.710938 -3.269531 11.207031 -3.773438 11.5625 -4.421875 C 11.925781 -5.066406 12.109375 -5.796875 12.109375 -6.609375 C 12.109375 -7.429688 11.925781 -8.160156 11.5625 -8.796875 C 11.207031 -9.441406 10.710938 -9.941406 10.078125 -10.296875 C 9.453125 -10.660156 8.75 -10.84375 7.96875 -10.84375 C 7.1875 -10.84375 6.476562 -10.660156 5.84375 -10.296875 C 5.21875 -9.941406 4.722656 -9.441406 4.359375 -8.796875 C 4.003906 -8.160156 3.828125 -7.429688 3.828125 -6.609375 C 3.828125 -5.796875 4.003906 -5.066406 4.359375 -4.421875 C 4.722656 -3.773438 5.21875 -3.269531 5.84375 -2.90625 C 6.476562 -2.550781 7.1875 -2.375 7.96875 -2.375 Z M 7.96875 -2.375 "/></g></g></g><g fill="#000000" fill-opacity="1"><g transform="translate(99.811528, 196.86718)"><g><path d="M 5.90625 0.234375 C 4.863281 0.234375 3.851562 0.09375 2.875 -0.1875 C 1.90625 -0.476562 1.125 -0.847656 0.53125 -1.296875 L 1.5625 -3.609375 C 2.132812 -3.191406 2.8125 -2.859375 3.59375 -2.609375 C 4.375 -2.359375 5.15625 -2.234375 5.9375 -2.234375 C 6.800781 -2.234375 7.441406 -2.359375 7.859375 -2.609375 C 8.273438 -2.867188 8.484375 -3.210938 8.484375 -3.640625 C 8.484375 -3.960938 8.359375 -4.222656 8.109375 -4.421875 C 7.867188 -4.628906 7.554688 -4.796875 7.171875 -4.921875 C 6.785156 -5.054688 6.265625 -5.195312 5.609375 -5.34375 C 4.597656 -5.582031 3.769531 -5.820312 3.125 -6.0625 C 2.488281 -6.300781 1.941406 -6.6875 1.484375 -7.21875 C 1.023438 -7.75 0.796875 -8.453125 0.796875 -9.328125 C 0.796875 -10.097656 1.003906 -10.796875 1.421875 -11.421875 C 1.835938 -12.046875 2.460938 -12.539062 3.296875 -12.90625 C 4.128906 -13.269531 5.148438 -13.453125 6.359375 -13.453125 C 7.203125 -13.453125 8.023438 -13.347656 8.828125 -13.140625 C 9.640625 -12.941406 10.347656 -12.65625 10.953125 -12.28125 L 10.015625 -9.953125 C 8.785156 -10.648438 7.5625 -11 6.34375 -11 C 5.488281 -11 4.851562 -10.859375 4.4375 -10.578125 C 4.03125 -10.296875 3.828125 -9.929688 3.828125 -9.484375 C 3.828125 -9.023438 4.0625 -8.6875 4.53125 -8.46875 C 5.007812 -8.25 5.734375 -8.035156 6.703125 -7.828125 C 7.710938 -7.585938 8.535156 -7.347656 9.171875 -7.109375 C 9.816406 -6.867188 10.367188 -6.488281 10.828125 -5.96875 C 11.285156 -5.445312 11.515625 -4.75 11.515625 -3.875 C 11.515625 -3.113281 11.300781 -2.421875 10.875 -1.796875 C 10.457031 -1.179688 9.828125 -0.6875 8.984375 -0.3125 C 8.140625 0.0507812 7.113281 0.234375 5.90625 0.234375 Z M 9.9375 -17.015625 L 7.453125 -14.296875 L 4.84375 -14.296875 L 2.34375 -17.015625 L 4.5 -17.015625 L 6.140625 -15.609375 L 7.78125 -17.015625 Z M 9.9375 -17.015625 "/></g></g></g><g fill="#000000" fill-opacity="1"><g transform="translate(118.396457, 196.86718)"><g/></g></g><g fill="#000000" fill-opacity="1"><g transform="translate(130.276594, 196.86718)"><g><path d="M 7.96875 0.234375 C 6.59375 0.234375 5.351562 -0.0625 4.25 -0.65625 C 3.15625 -1.25 2.296875 -2.066406 1.671875 -3.109375 C 1.046875 -4.148438 0.734375 -5.316406 0.734375 -6.609375 C 0.734375 -7.910156 1.046875 -9.078125 1.671875 -10.109375 C 2.296875 -11.148438 3.15625 -11.96875 4.25 -12.5625 C 5.351562 -13.15625 6.59375 -13.453125 7.96875 -13.453125 C 9.34375 -13.453125 10.578125 -13.15625 11.671875 -12.5625 C 12.765625 -11.96875 13.625 -11.148438 14.25 -10.109375 C 14.882812 -9.078125 15.203125 -7.910156 15.203125 -6.609375 C 15.203125 -5.316406 14.882812 -4.148438 14.25 -3.109375 C 13.625 -2.066406 12.765625 -1.25 11.671875 -0.65625 C 10.578125 -0.0625 9.34375 0.234375 7.96875 0.234375 Z M 7.96875 -2.375 C 8.75 -2.375 9.453125 -2.550781 10.078125 -2.90625 C 10.710938 -3.269531 11.207031 -3.773438 11.5625 -4.421875 C 11.925781 -5.066406 12.109375 -5.796875 12.109375 -6.609375 C 12.109375 -7.429688 11.925781 -8.160156 11.5625 -8.796875 C 11.207031 -9.441406 10.710938 -9.941406 10.078125 -10.296875 C 9.453125 -10.660156 8.75 -10.84375 7.96875 -10.84375 C 7.1875 -10.84375 6.476562 -10.660156 5.84375 -10.296875 C 5.21875 -9.941406 4.722656 -9.441406 4.359375 -8.796875 C 4.003906 -8.160156 3.828125 -7.429688 3.828125 -6.609375 C 3.828125 -5.796875 4.003906 -5.066406 4.359375 -4.421875 C 4.722656 -3.773438 5.21875 -3.269531 5.84375 -2.90625 C 6.476562 -2.550781 7.1875 -2.375 7.96875 -2.375 Z M 7.96875 -2.375 "/></g></g></g><g fill="#000000" fill-opacity="1"><g transform="translate(152.752212, 196.86718)"><g><path d="M 10.5 -6.8125 L 13.296875 -6.8125 L 13.296875 -1.453125 C 12.578125 -0.910156 11.742188 -0.492188 10.796875 -0.203125 C 9.859375 0.0859375 8.910156 0.234375 7.953125 0.234375 C 6.578125 0.234375 5.34375 -0.0546875 4.25 -0.640625 C 3.15625 -1.234375 2.296875 -2.046875 1.671875 -3.078125 C 1.046875 -4.117188 0.734375 -5.296875 0.734375 -6.609375 C 0.734375 -7.921875 1.046875 -9.09375 1.671875 -10.125 C 2.296875 -11.164062 3.160156 -11.976562 4.265625 -12.5625 C 5.378906 -13.15625 6.628906 -13.453125 8.015625 -13.453125 C 9.171875 -13.453125 10.21875 -13.253906 11.15625 -12.859375 C 12.101562 -12.472656 12.898438 -11.910156 13.546875 -11.171875 L 11.578125 -9.34375 C 10.628906 -10.34375 9.488281 -10.84375 8.15625 -10.84375 C 7.3125 -10.84375 6.5625 -10.664062 5.90625 -10.3125 C 5.257812 -9.957031 4.75 -9.457031 4.375 -8.8125 C 4.007812 -8.175781 3.828125 -7.441406 3.828125 -6.609375 C 3.828125 -5.796875 4.007812 -5.066406 4.375 -4.421875 C 4.75 -3.773438 5.257812 -3.269531 5.90625 -2.90625 C 6.550781 -2.550781 7.289062 -2.375 8.125 -2.375 C 9 -2.375 9.789062 -2.566406 10.5 -2.953125 Z M 10.5 -6.8125 "/></g></g></g><g fill="#000000" fill-opacity="1"><g transform="translate(173.849077, 196.86718)"><g><path d="M 13.703125 -13.21875 L 13.703125 0 L 11.1875 0 L 4.59375 -8.03125 L 4.59375 0 L 1.5625 0 L 1.5625 -13.21875 L 4.09375 -13.21875 L 10.671875 -5.1875 L 10.671875 -13.21875 Z M 13.703125 -13.21875 "/></g></g></g><g fill="#000000" fill-opacity="1"><g transform="translate(195.644767, 196.86718)"><g><path d="M 4 0.234375 C 3.101562 0.234375 2.28125 0.0664062 1.53125 -0.265625 C 0.789062 -0.609375 0.179688 -1.085938 -0.296875 -1.703125 L 1.390625 -3.734375 C 2.109375 -2.765625 2.929688 -2.28125 3.859375 -2.28125 C 5.097656 -2.28125 5.71875 -3.015625 5.71875 -4.484375 L 5.71875 -10.765625 L 1.078125 -10.765625 L 1.078125 -13.21875 L 8.765625 -13.21875 L 8.765625 -4.640625 C 8.765625 -3.015625 8.359375 -1.796875 7.546875 -0.984375 C 6.742188 -0.171875 5.5625 0.234375 4 0.234375 Z M 4 0.234375 "/></g></g></g><g fill="#000000" fill-opacity="1"><g transform="translate(212.397689, 196.86718)"><g><path d="M 11.8125 -2.453125 L 11.8125 0 L 1.5625 0 L 1.5625 -13.21875 L 11.5625 -13.21875 L 11.5625 -10.765625 L 4.609375 -10.765625 L 4.609375 -7.890625 L 10.75 -7.890625 L 10.75 -5.515625 L 4.609375 -5.515625 L 4.609375 -2.453125 Z M 11.8125 -2.453125 "/></g></g></g><g fill="#000000" fill-opacity="1"><g transform="translate(231.605881, 196.86718)"><g><path d="M 13.703125 -13.21875 L 13.703125 0 L 11.1875 0 L 4.59375 -8.03125 L 4.59375 0 L 1.5625 0 L 1.5625 -13.21875 L 4.09375 -13.21875 L 10.671875 -5.1875 L 10.671875 -13.21875 Z M 13.703125 -13.21875 "/></g></g></g><g fill="#000000" fill-opacity="1"><g transform="translate(253.401571, 196.86718)"><g><path d="M 7.96875 0.234375 C 6.59375 0.234375 5.351562 -0.0625 4.25 -0.65625 C 3.15625 -1.25 2.296875 -2.066406 1.671875 -3.109375 C 1.046875 -4.148438 0.734375 -5.316406 0.734375 -6.609375 C 0.734375 -7.910156 1.046875 -9.078125 1.671875 -10.109375 C 2.296875 -11.148438 3.15625 -11.96875 4.25 -12.5625 C 5.351562 -13.15625 6.59375 -13.453125 7.96875 -13.453125 C 9.34375 -13.453125 10.578125 -13.15625 11.671875 -12.5625 C 12.765625 -11.96875 13.625 -11.148438 14.25 -10.109375 C 14.882812 -9.078125 15.203125 -7.910156 15.203125 -6.609375 C 15.203125 -5.316406 14.882812 -4.148438 14.25 -3.109375 C 13.625 -2.066406 12.765625 -1.25 11.671875 -0.65625 C 10.578125 -0.0625 9.34375 0.234375 7.96875 0.234375 Z M 7.96875 -2.375 C 8.75 -2.375 9.453125 -2.550781 10.078125 -2.90625 C 10.710938 -3.269531 11.207031 -3.773438 11.5625 -4.421875 C 11.925781 -5.066406 12.109375 -5.796875 12.109375 -6.609375 C 12.109375 -7.429688 11.925781 -8.160156 11.5625 -8.796875 C 11.207031 -9.441406 10.710938 -9.941406 10.078125 -10.296875 C 9.453125 -10.660156 8.75 -10.84375 7.96875 -10.84375 C 7.1875 -10.84375 6.476562 -10.660156 5.84375 -10.296875 C 5.21875 -9.941406 4.722656 -9.441406 4.359375 -8.796875 C 4.003906 -8.160156 3.828125 -7.429688 3.828125 -6.609375 C 3.828125 -5.796875 4.003906 -5.066406 4.359375 -4.421875 C 4.722656 -3.773438 5.21875 -3.269531 5.84375 -2.90625 C 6.476562 -2.550781 7.1875 -2.375 7.96875 -2.375 Z M 7.96875 -2.375 "/></g></g></g><g fill="#000000" fill-opacity="1"><g transform="translate(275.877181, 196.86718)"><g><path d="M 14.28125 -13.21875 L 8.5625 0 L 5.53125 0 L -0.171875 -13.21875 L 3.140625 -13.21875 L 7.15625 -3.78125 L 11.234375 -13.21875 Z M 14.28125 -13.21875 "/></g></g></g><g fill="#000000" fill-opacity="1"><g transform="translate(296.501882, 196.86718)"><g><path d="M 1.5625 -13.21875 L 4.625 -13.21875 L 4.625 0 L 1.5625 0 Z M 1.5625 -13.21875 "/></g></g></g><g fill="#000000" fill-opacity="1"><g transform="translate(309.231938, 196.86718)"><g><path d="M 7.890625 0.234375 C 6.546875 0.234375 5.328125 -0.0546875 4.234375 -0.640625 C 3.148438 -1.234375 2.296875 -2.046875 1.671875 -3.078125 C 1.046875 -4.117188 0.734375 -5.296875 0.734375 -6.609375 C 0.734375 -7.921875 1.046875 -9.09375 1.671875 -10.125 C 2.296875 -11.164062 3.148438 -11.976562 4.234375 -12.5625 C 5.328125 -13.15625 6.554688 -13.453125 7.921875 -13.453125 C 9.066406 -13.453125 10.097656 -13.25 11.015625 -12.84375 C 11.941406 -12.4375 12.722656 -11.859375 13.359375 -11.109375 L 11.390625 -9.296875 C 10.492188 -10.328125 9.382812 -10.84375 8.0625 -10.84375 C 7.25 -10.84375 6.519531 -10.660156 5.875 -10.296875 C 5.226562 -9.941406 4.722656 -9.441406 4.359375 -8.796875 C 4.003906 -8.160156 3.828125 -7.429688 3.828125 -6.609375 C 3.828125 -5.796875 4.003906 -5.066406 4.359375 -4.421875 C 4.722656 -3.773438 5.226562 -3.269531 5.875 -2.90625 C 6.519531 -2.550781 7.25 -2.375 8.0625 -2.375 C 9.382812 -2.375 10.492188 -2.898438 11.390625 -3.953125 L 13.359375 -2.140625 C 12.722656 -1.367188 11.9375 -0.78125 11 -0.375 C 10.070312 0.03125 9.035156 0.234375 7.890625 0.234375 Z M 8.640625 -17.015625 L 11.828125 -17.015625 L 8.40625 -14.296875 L 6.09375 -14.296875 Z M 8.640625 -17.015625 "/></g></g></g></svg>